<svg width="16" height="17" viewBox="0 0 16 17" fill="none" xmlns="http://www.w3.org/2000/svg">
<path d="M14.0952 8.11905H12.9524V5.07143C12.9524 4.23333 12.2667 3.54762 11.4286 3.54762H8.38095V2.40476C8.38095 1.89959 8.18027 1.4151 7.82306 1.05789C7.46585 0.70068 6.98136 0.5 6.47619 0.5C5.97102 0.5 5.48653 0.70068 5.12932 1.05789C4.77211 1.4151 4.57143 1.89959 4.57143 2.40476V3.54762H1.52381C0.685714 3.54762 0.00761904 4.23333 0.00761904 5.07143V7.96667H1.14286C2.2781 7.96667 3.2 8.88857 3.2 10.0238C3.2 11.159 2.2781 12.081 1.14286 12.081H0V14.9762C0 15.8143 0.685714 16.5 1.52381 16.5H4.41905V15.3571C4.41905 14.2219 5.34095 13.3 6.47619 13.3C7.61143 13.3 8.53333 14.2219 8.53333 15.3571V16.5H11.4286C12.2667 16.5 12.9524 15.8143 12.9524 14.9762V11.9286H14.0952C14.6004 11.9286 15.0849 11.7279 15.4421 11.3707C15.7993 11.0135 16 10.529 16 10.0238C16 9.51863 15.7993 9.03415 15.4421 8.67694C15.0849 8.31973 14.6004 8.11905 14.0952 8.11905Z" fill="#212222"/>
</svg>
